<svg width="20" height="20" viewBox="0 0 20 20" fill="none" xmlns="http://www.w3.org/2000/svg">
<path d="M10 15.8333C9.81947 15.8333 9.67016 15.7743 9.5521 15.6562C9.43405 15.5382 9.37502 15.3889 9.37502 15.2083V10.625H4.79169C4.61113 10.625 4.46183 10.566 4.34377 10.4479C4.22571 10.3299 4.16669 10.1806 4.16669 10C4.16669 9.81944 4.22571 9.67014 4.34377 9.55208C4.46183 9.43403 4.61113 9.375 4.79169 9.375H9.37502V4.79166C9.37502 4.61111 9.43405 4.4618 9.5521 4.34375C9.67016 4.22569 9.81947 4.16666 10 4.16666C10.1806 4.16666 10.3299 4.22569 10.4479 4.34375C10.566 4.4618 10.625 4.61111 10.625 4.79166V9.375H15.2084C15.3889 9.375 15.5382 9.43403 15.6563 9.55208C15.7743 9.67014 15.8334 9.81944 15.8334 10C15.8334 10.1806 15.7743 10.3299 15.6563 10.4479C15.5382 10.566 15.3889 10.625 15.2084 10.625H10.625V15.2083C10.625 15.3889 10.566 15.5382 10.4479 15.6562C10.3299 15.7743 10.1806 15.8333 10 15.8333Z" fill="white"/>
</svg>
